<svg role="img" viewBox="0 0 24 24" xmlns="http://www.w3.org/2000/svg"><title>Selenium icon</title><path d="M.627.03C.598.051.574.079.557.11c-.03.06-.03 23.73 0 23.8l.06.07.041.02h22.691l.04-.02c.021-.021.037-.045.05-.07.03-.061.04-20.33 0-20.4-.036-.074-.122-.109-.2-.08-.05.03.2-.25-3.93 4.38-1.95 2.2-3.57 4-3.601 4.03-.05.04-.17.04-.22 0-.03-.01-3.7-3.79-3.82-3.92-.15-.17-.18-.1.58-1.1.73-.96.7-.92.85-.9.07 0 .051-.01 1.201 1.27l1.1 1.2c.06.04.15.05.22.01.06-.03 6.001-8.11 6.03-8.2.02-.06-.02-.14-.09-.17-.04-.02-.731-.03-10.461-.03H.667l-.04.03m6.791 11.13c1.1.08 2.1.46 3 1.14.28.22.3.18-.3.979-.63.83-.6.801-.88.601-.911-.694-2.069-.984-3.2-.8-.56.13-.89.529-.83.99.06.459.46.66 2.03 1.029 1.82.44 2.56.791 3.15 1.5.6.721.67 2.021.2 3-.51 1.03-1.56 1.621-3.08 1.76-.93.08-1.9-.02-2.66-.27-.89-.3-2.02-1.029-2.02-1.3 0-.08-.04-.011.94-1.399.1-.101.23-.101.38.029 1.001.902 2.371 1.273 3.69 1 .97-.26 1.26-1.16.54-1.641-.3-.199-.58-.289-1.77-.579-.93-.22-1.3-.341-1.76-.53-1.2-.52-1.77-1.32-1.77-2.5 0-1.7 1.42-2.92 3.5-3h.83m8.45 2.501c2.12.1 3.479 1.67 3.5 4.02v.33l-.04.051c-.07.07.061.07-2.76.07-2.601 0-2.621 0-2.641.02l.02.16c.221.9 1.021 1.52 1.941 1.52.689 0 1.33-.18 1.869-.55.17-.12.271-.12.35 0l.65.95c.07.14 0 .23-.4.46-.859.521-2.029.771-3.1.67-1.777-.169-3.186-1.573-3.36-3.351-.018-.332-.018-.666 0-1 .185-1.838 1.685-3.266 3.53-3.359l.18-.01h.261m-.4 1.549c-.757.086-1.377.638-1.55 1.38-.03.141-.03.199 0 .22.02.03 3.551.021 3.57 0 .05-.05-.051-.46-.15-.659-.34-.681-1.04-1.031-1.88-.94"/></svg>